<svg xmlns="http://www.w3.org/2000/svg" viewBox="0 0 49.65 49.65"><defs><style>.cls-1{fill:#b3b3b3;}</style></defs><g id="Layer_2" data-name="Layer 2"><g id="dark"><path class="cls-1" d="M24.83,0A24.83,24.83,0,1,0,49.65,24.83,24.86,24.86,0,0,0,24.83,0Zm0,10.18a3.23,3.23,0,1,1-3.23,3.23A3.22,3.22,0,0,1,24.83,10.18Zm6.36,28.14H19.74a2.06,2.06,0,0,1-1.92-1.22,2.1,2.1,0,0,1,1.91-2.94h3.65V23.33H21.29a2,2,0,0,1-1.9-1.21,2.1,2.1,0,0,1,1.9-3h4.29a2,2,0,0,1,2,2v13h3.64a2.06,2.06,0,0,1,1.92,1.22A2.1,2.1,0,0,1,31.19,38.32Z"/></g></g></svg>