<svg xmlns="http://www.w3.org/2000/svg" viewBox="0 0 44 44" width="44" height="44"><defs><style>.cls-1{fill:#80601b;}.cls-2{fill:#f2f2f2;}</style></defs><g id="Layer_2" data-name="Layer 2"><g id="Footer"><circle class="cls-1" cx="22" cy="22" r="22"/><path class="cls-2" d="M27.24,11.44a5.27,5.27,0,0,1,5.27,5.26V27.24a5.28,5.28,0,0,1-5.27,5.27H16.7a5.27,5.27,0,0,1-5.26-5.27V16.7a5.27,5.27,0,0,1,5.26-5.26H27.25m0-2.09H16.73a7.4,7.4,0,0,0-7.38,7.38V27.27a7.4,7.4,0,0,0,7.38,7.38H27.27a7.4,7.4,0,0,0,7.38-7.38V16.73A7.4,7.4,0,0,0,27.27,9.35Z"/><path class="cls-2" d="M28.83,16.69a1.58,1.58,0,1,1,1.58-1.58,1.58,1.58,0,0,1-1.58,1.58Z"/><path class="cls-2" d="M22,17.75A4.22,4.22,0,1,1,17.75,22,4.22,4.22,0,0,1,22,17.75m0-2.11A6.33,6.33,0,1,0,28.3,22,6.34,6.34,0,0,0,22,15.64Z"/></g></g></svg>