<svg xmlns="http://www.w3.org/2000/svg" viewBox="0 0 63.12 36.77"><g id="Layer_2" data-name="Layer 2"><g id="Header"><path d="M12.36,24A5.42,5.42,0,0,1,11.42,25a8.57,8.57,0,0,1-1.3,1,6.84,6.84,0,0,1-1.58.7A6.35,6.35,0,0,1,6.72,27a6.53,6.53,0,0,1-5-1.84A7.66,7.66,0,0,1,0,19.64v-12H5.12V19.48a3.76,3.76,0,0,0,.74,2.62,3,3,0,0,0,2.26.78,3.82,3.82,0,0,0,2.32-.76,9.23,9.23,0,0,0,1.84-1.8V7.64H17.4V25.4a12,12,0,0,1-.74,4.44,7.94,7.94,0,0,1-2,3,8,8,0,0,1-3,1.7,12.88,12.88,0,0,1-3.8.54,16.37,16.37,0,0,1-4.24-.52,10.91,10.91,0,0,1-3.28-1.4l1.28-4a9.25,9.25,0,0,0,2.8,1.24,11.51,11.51,0,0,0,2.8.36A5.83,5.83,0,0,0,11,29.66c.91-.76,1.36-2.1,1.36-4Z"/><path d="M34.88,7.64H40V27H35.44l-.56-2.52A6,6,0,0,1,34,25.52a7.92,7.92,0,0,1-1.28,1,6.88,6.88,0,0,1-1.56.7,6.17,6.17,0,0,1-1.8.26,6.53,6.53,0,0,1-5-1.84,7.66,7.66,0,0,1-1.76-5.48V7.64h5.12V20a3.76,3.76,0,0,0,.74,2.62,3,3,0,0,0,2.26.78A3.82,3.82,0,0,0,33,22.6a9.23,9.23,0,0,0,1.84-1.8Z"/><path d="M50.4,27H45.28V0H50.4V10.16a10.29,10.29,0,0,1,1.1-1,8.84,8.84,0,0,1,1.48-1,9,9,0,0,1,1.84-.72A8,8,0,0,1,57,7.16a5.57,5.57,0,0,1,4.4,2,8.41,8.41,0,0,1,1.72,5.64V27H58V15a4.75,4.75,0,0,0-.68-2.78,2.53,2.53,0,0,0-2.2-.94,4.89,4.89,0,0,0-2.66.8A8.62,8.62,0,0,0,50.4,13.8Z"/><path d="M24.35,31.61a4.33,4.33,0,0,0,.29-.69,2.15,2.15,0,0,0,.12-.61c0-.12,0-.19-.11-.19q-.39,0-.39-.48a.52.52,0,0,1,.13-.37.47.47,0,0,1,.39-.15.57.57,0,0,1,.41.16.74.74,0,0,1,.14.48v0a2.15,2.15,0,0,1-.07.46,4.74,4.74,0,0,1-.15.5,3.07,3.07,0,0,1-.2.5c-.08.16-.15.3-.22.42l-.17,0Z"/><path d="M28.18,36.13a1.44,1.44,0,0,0,1-.25.76.76,0,0,0,.29-.6.73.73,0,0,0-.38-.66,3.66,3.66,0,0,0-.91-.38A5.85,5.85,0,0,1,27.5,34a2.12,2.12,0,0,1-.51-.32,1.32,1.32,0,0,1-.45-1,1.19,1.19,0,0,1,.51-1,2.44,2.44,0,0,1,1.37-.35,4.88,4.88,0,0,1,.88.08,2.92,2.92,0,0,1,.74.25l-.19.62a3.12,3.12,0,0,0-.63-.22,2.87,2.87,0,0,0-.73-.08,1.58,1.58,0,0,0-.88.19.63.63,0,0,0-.29.53.64.64,0,0,0,.3.58,3.08,3.08,0,0,0,.79.36,3.85,3.85,0,0,1,1.35.65,1.45,1.45,0,0,1,0,2.15,2.39,2.39,0,0,1-1.51.4,4.72,4.72,0,0,1-.95-.09,2.67,2.67,0,0,1-.74-.25l.19-.61a3.29,3.29,0,0,0,.67.22A3.48,3.48,0,0,0,28.18,36.13Z"/><path d="M37.54,33.17a1.18,1.18,0,0,0-.34-1,1.32,1.32,0,0,0-.92-.29,3.72,3.72,0,0,0-.91.11,4.69,4.69,0,0,0-.75.28l-.19-.58a3.15,3.15,0,0,1,.79-.32,3.61,3.61,0,0,1,1.08-.15,2,2,0,0,1,1.53.51,2,2,0,0,1,.49,1.41v3.49h-.61l-.17-.94a2.21,2.21,0,0,1-.28.4,2,2,0,0,1-.37.33,1.77,1.77,0,0,1-.5.23,2.7,2.7,0,0,1-.68.08,1.91,1.91,0,0,1-.64-.11,1.58,1.58,0,0,1-.52-.3,1.48,1.48,0,0,1-.36-.49,1.85,1.85,0,0,1-.12-.69,1.52,1.52,0,0,1,.61-1.33,2.88,2.88,0,0,1,1.72-.45h1.14Zm0,.85H36.39a1.86,1.86,0,0,0-1.15.3,1,1,0,0,0-.38.86.88.88,0,0,0,.28.71,1,1,0,0,0,.7.24,1.66,1.66,0,0,0,1.24-.52,1.77,1.77,0,0,0,.34-.53,1.52,1.52,0,0,0,.12-.59Z"/><path d="M40.83,36.67H40V29.25h.81Z"/><path d="M42.57,29.25h.81v3a2.16,2.16,0,0,1,.3-.32,2.59,2.59,0,0,1,.41-.31,2.83,2.83,0,0,1,.53-.23,2.18,2.18,0,0,1,.63-.09,1.88,1.88,0,0,1,.91.21,1.91,1.91,0,0,1,.65.58,2.94,2.94,0,0,1,.39.86,3.88,3.88,0,0,1,.13,1,4.12,4.12,0,0,1-.16,1.23,2.41,2.41,0,0,1-.45.89,1.74,1.74,0,0,1-.7.53,2.14,2.14,0,0,1-.89.18,1.88,1.88,0,0,1-1.06-.3,2,2,0,0,1-.69-.74l-.16.94h-.65Zm.81,4.89a2.27,2.27,0,0,0,.13.75,2,2,0,0,0,.35.61,1.65,1.65,0,0,0,.51.4A1.57,1.57,0,0,0,45,36a1.38,1.38,0,0,0,.57-.11,1.14,1.14,0,0,0,.49-.36,1.75,1.75,0,0,0,.33-.64,3.17,3.17,0,0,0,.13-1,2.24,2.24,0,0,0-.4-1.47,1.25,1.25,0,0,0-1-.48,1.85,1.85,0,0,0-1,.27,2.73,2.73,0,0,0-.75.69Z"/><path d="M52.27,31.36h.82v5.31h-.65l-.17-.94a1.87,1.87,0,0,1-.27.36,2.2,2.2,0,0,1-.4.33,2.69,2.69,0,0,1-.54.25,2.43,2.43,0,0,1-.68.1,1.65,1.65,0,0,1-1.24-.5,2.15,2.15,0,0,1-.49-1.58V31.36h.79v3.33a1.6,1.6,0,0,0,.29,1,1,1,0,0,0,.78.35,2,2,0,0,0,1.05-.32,2.64,2.64,0,0,0,.4-.35,3.6,3.6,0,0,0,.31-.4Z"/><path d="M55.57,36.67h-.81V31.36h.67l.14.85a1.87,1.87,0,0,1,.26-.33,2.2,2.2,0,0,1,.37-.3,1.89,1.89,0,0,1,.47-.24,2.14,2.14,0,0,1,.58-.08,1.32,1.32,0,0,1,.89.28,1.54,1.54,0,0,1,.47.78,2.53,2.53,0,0,1,.72-.74,1.75,1.75,0,0,1,1-.32,1.26,1.26,0,0,1,1.14.53,2.4,2.4,0,0,1,.37,1.38v3.5h-.81v-3.5a1.7,1.7,0,0,0-.19-.87A.72.72,0,0,0,60.2,32a1.13,1.13,0,0,0-.45.09,2.06,2.06,0,0,0-.41.23,2.19,2.19,0,0,0-.34.34,1.76,1.76,0,0,0-.27.4v3.64h-.8v-3.5a1.7,1.7,0,0,0-.2-.87.7.7,0,0,0-.66-.33,1.48,1.48,0,0,0-.89.29,2.34,2.34,0,0,0-.61.69Z"/></g></g></svg>