<svg xmlns="http://www.w3.org/2000/svg" viewBox="0 0 36.09 38.86"><g id="Layer_2" data-name="Layer 2"><g id="menu"><path d="M24.69,2.83A8.9,8.9,0,0,0,18,0a9,9,0,0,0-6.66,2.81,9.19,9.19,0,0,0-2.33,7c.39,5.3,4.42,9.61,9,9.61s8.61-4.31,9-9.61A9.16,9.16,0,0,0,24.69,2.83Z"/><path d="M33.31,38.86H2.78a2.69,2.69,0,0,1-2.1-1,3.09,3.09,0,0,1-.63-2.53A14.9,14.9,0,0,1,6.66,25.5,20.73,20.73,0,0,1,18,22.21,20.79,20.79,0,0,1,29.43,25.5,14.86,14.86,0,0,1,36,35.37a3.09,3.09,0,0,1-.62,2.53A2.69,2.69,0,0,1,33.31,38.86Z"/></g></g></svg>