<svg xmlns="http://www.w3.org/2000/svg" viewBox="0 0 44 44" width="44" height="44"><defs><style>.cls-1{fill:#80601b;}.cls-2{fill:#f2f2f2;}</style></defs><g id="Layer_2" data-name="Layer 2"><g id="Footer"><circle class="cls-1" cx="22" cy="22" r="22"/><path class="cls-2" d="M13.88,26a2.82,2.82,0,1,1-2.82-2.82h2.82Z"/><path class="cls-2" d="M15.26,26a2.82,2.82,0,1,1,5.63,0V33a2.82,2.82,0,0,1-5.63,0h0Z"/><path class="cls-2" d="M18.13,14.66A2.82,2.82,0,1,1,21,11.85v2.81Z"/><path class="cls-2" d="M18.09,16a2.82,2.82,0,1,1,0,5.63H11A2.82,2.82,0,0,1,11,16Z"/><path class="cls-2" d="M29.39,18.91a2.82,2.82,0,1,1,2.82,2.82H29.39Z"/><path class="cls-2" d="M28,18.88a2.82,2.82,0,0,1-5.63,0v-7a2.82,2.82,0,1,1,5.63,0h0Z"/><path class="cls-2" d="M25.21,30.18A2.82,2.82,0,1,1,22.39,33V30.18Z"/><path class="cls-2" d="M25.18,28.8a2.82,2.82,0,0,1,0-5.63h7a2.82,2.82,0,1,1,0,5.63h-7Z"/></g></g></svg>