<svg xmlns="http://www.w3.org/2000/svg" viewBox="0 0 44 44" width="44" height="44"><defs><style>.cls-1{fill:#80601b;}.cls-2{fill:#f2f2f2;}</style></defs><g id="Layer_2" data-name="Layer 2"><g id="Footer"><circle class="cls-1" cx="22" cy="22" r="22"/><path class="cls-2" d="M37.31,13.15a11.87,11.87,0,0,1-3.36.91,5.75,5.75,0,0,0,2.57-3.18,12,12,0,0,1-3.71,1.4,5.81,5.81,0,0,0-9.94,5.23,16.62,16.62,0,0,1-12-6,5.69,5.69,0,0,0,1.81,7.67A5.7,5.7,0,0,1,10,18.46v.07a5.77,5.77,0,0,0,4.68,5.63,6.14,6.14,0,0,1-1.54.2,5.76,5.76,0,0,1-1.09-.11,5.84,5.84,0,0,0,5.45,4,11.78,11.78,0,0,1-7.25,2.46,13,13,0,0,1-1.39-.08,16.53,16.53,0,0,0,8.93,2.59A16.36,16.36,0,0,0,34.41,16.87c0-.25,0-.5,0-.74A11.82,11.82,0,0,0,37.31,13.15Z"/></g></g></svg>